<svg width="69" height="24" viewBox="0 0 69 24" fill="none" xmlns="http://www.w3.org/2000/svg">
<path d="M5.832 19.08H14.288V23H0.4V19.36L8.8 7.264H0.4V3.344H14.288V6.984L5.832 19.08ZM16.4637 15.16C16.4637 13.5547 16.7624 12.1453 17.3597 10.932C17.9757 9.71867 18.8064 8.78533 19.8517 8.132C20.897 7.47867 22.0637 7.152 23.3517 7.152C24.453 7.152 25.4144 7.376 26.2357 7.824C27.0757 8.272 27.7197 8.86 28.1677 9.588V7.376H32.9557V23H28.1677V20.788C27.701 21.516 27.0477 22.104 26.2077 22.552C25.3864 23 24.425 23.224 23.3237 23.224C22.0544 23.224 20.897 22.8973 19.8517 22.244C18.8064 21.572 17.9757 20.6293 17.3597 19.416C16.7624 18.184 16.4637 16.7653 16.4637 15.16ZM28.1677 15.188C28.1677 13.9933 27.8317 13.0507 27.1597 12.36C26.5064 11.6693 25.7037 11.324 24.7517 11.324C23.7997 11.324 22.9877 11.6693 22.3157 12.36C21.6624 13.032 21.3357 13.9653 21.3357 15.16C21.3357 16.3547 21.6624 17.3067 22.3157 18.016C22.9877 18.7067 23.7997 19.052 24.7517 19.052C25.7037 19.052 26.5064 18.7067 27.1597 18.016C27.8317 17.3253 28.1677 16.3827 28.1677 15.188ZM38.8276 5.752C37.9876 5.752 37.2969 5.50933 36.7556 5.024C36.2329 4.52 35.9716 3.904 35.9716 3.176C35.9716 2.42933 36.2329 1.81333 36.7556 1.328C37.2969 0.823998 37.9876 0.571998 38.8276 0.571998C39.6489 0.571998 40.3209 0.823998 40.8436 1.328C41.3849 1.81333 41.6556 2.42933 41.6556 3.176C41.6556 3.904 41.3849 4.52 40.8436 5.024C40.3209 5.50933 39.6489 5.752 38.8276 5.752ZM41.2076 7.376V23H36.4196V7.376H41.2076ZM43.7254 15.16C43.7254 13.5547 44.0241 12.1453 44.6214 10.932C45.2374 9.71867 46.0681 8.78533 47.1134 8.132C48.1587 7.47867 49.3254 7.152 50.6134 7.152C51.6401 7.152 52.5734 7.36667 53.4134 7.796C54.2721 8.22533 54.9441 8.804 55.4294 9.532V2.28H60.2174V23H55.4294V20.76C54.9814 21.5067 54.3374 22.104 53.4974 22.552C52.6761 23 51.7147 23.224 50.6134 23.224C49.3254 23.224 48.1587 22.8973 47.1134 22.244C46.0681 21.572 45.2374 20.6293 44.6214 19.416C44.0241 18.184 43.7254 16.7653 43.7254 15.16ZM55.4294 15.188C55.4294 13.9933 55.0934 13.0507 54.4214 12.36C53.7681 11.6693 52.9654 11.324 52.0134 11.324C51.0614 11.324 50.2494 11.6693 49.5774 12.36C48.9241 13.032 48.5974 13.9653 48.5974 15.16C48.5974 16.3547 48.9241 17.3067 49.5774 18.016C50.2494 18.7067 51.0614 19.052 52.0134 19.052C52.9654 19.052 53.7681 18.7067 54.4214 18.016C55.0934 17.3253 55.4294 16.3827 55.4294 15.188ZM65.9213 23.224C65.0813 23.224 64.3906 22.9813 63.8493 22.496C63.3266 21.992 63.0653 21.376 63.0653 20.648C63.0653 19.9013 63.3266 19.276 63.8493 18.772C64.3906 18.268 65.0813 18.016 65.9213 18.016C66.7426 18.016 67.4146 18.268 67.9373 18.772C68.4786 19.276 68.7493 19.9013 68.7493 20.648C68.7493 21.376 68.4786 21.992 67.9373 22.496C67.4146 22.9813 66.7426 23.224 65.9213 23.224Z" fill="#3281FF"/>
</svg>
